<svg xmlns="http://www.w3.org/2000/svg" viewBox="0 0 95.03 128"><defs><style>.cls-1{fill:#fff;}</style></defs><title>ao-icon</title><g id="レイヤー_2" data-name="レイヤー 2"><g id="_1" data-name="1"><path class="cls-1" d="M49.65,73.82,46.2,61.63c-3.09,2.6-5.13,7.15-5.13,13.36,0,10.35,5.4,16.35,11.94,16.35s12-6,12-16.35c0-10.1-5.45-15.85-12-15.85a10.43,10.43,0,0,0-4.69,1.09L52.2,73.82Z"/><path class="cls-1" d="M40.52,41.08c-.52-1.73-1.1-4.85-1.1-4.85H39.3s-.57,3.06-1.1,4.85L33.64,57.51H45.09Z"/><path class="cls-1" d="M47.52,0C26.22,0,0,30.06,0,70.79S24.24,128,47.52,128,95,111.52,95,70.79,68.81,0,47.52,0ZM53,93.34c-7.79,0-14.18-6.9-14.18-18.35,0-7.06,2.54-12.31,6.37-15.23H33L29.07,73.82H26.52L38,33.33h2.6l7.12,24.92A12.79,12.79,0,0,1,53,57.14c7.89,0,14.27,6.65,14.27,17.85C67.28,86.44,60.9,93.34,53,93.34Z"/><path d="M49.65,73.82H52.2L48.32,60.23a10.37,10.37,0,0,0-2.12,1.4Z"/><path d="M40.63,33.33H38L26.52,73.82h2.55L33,59.76H45.2a12.68,12.68,0,0,1,2.55-1.51ZM38.2,41.08c.53-1.79,1.1-4.85,1.1-4.85h.12s.58,3.12,1.1,4.85l4.57,16.43H33.64Z"/><path d="M53,57.14a12.79,12.79,0,0,0-5.26,1.11l.57,2A10.43,10.43,0,0,1,53,59.14c6.54,0,12,5.75,12,15.85,0,10.35-5.45,16.35-12,16.35S41.07,85.34,41.07,75c0-6.21,2-10.76,5.13-13.36l-.54-1.87H45.2c-3.83,2.92-6.37,8.17-6.37,15.23,0,11.45,6.39,18.35,14.18,18.35S67.28,86.44,67.28,75C67.28,63.79,60.9,57.14,53,57.14Z"/><path d="M46.2,61.63a10.37,10.37,0,0,1,2.12-1.4l-.57-2a12.68,12.68,0,0,0-2.55,1.51h.46Z"/></g></g></svg>